<?xml version="1.0" encoding="UTF-8" standalone="no"?>
<!-- Created with Inkscape (http://www.inkscape.org/) -->

<svg
   xmlns:dc="http://purl.org/dc/elements/1.1/"
   xmlns:cc="http://creativecommons.org/ns#"
   xmlns:rdf="http://www.w3.org/1999/02/22-rdf-syntax-ns#"
   xmlns:svg="http://www.w3.org/2000/svg"
   xmlns="http://www.w3.org/2000/svg"
   xmlns:sodipodi="http://sodipodi.sourceforge.net/DTD/sodipodi-0.dtd"
   xmlns:inkscape="http://www.inkscape.org/namespaces/inkscape"
   width="792mm"
   height="1136mm"
   viewBox="0 0 791.99999 1136"
   version="1.1"
   id="svg8"
   inkscape:version="0.92.5 (2060ec1f9f, 2020-04-08)"
   sodipodi:docname="logo-home-2.svg"
   inkscape:export-filename="/media/data/development/jhipster/EADesignIt/src/main/webapp/content/images/logo-EA-home.png"
   inkscape:export-xdpi="96"
   inkscape:export-ydpi="96">
  <defs
     id="defs2">
    <inkscape:path-effect
       effect="perspective-envelope"
       up_left_point="33.819297,91.837329"
       up_right_point="42.105682,88.553433"
       down_left_point="34.018321,100.54774"
       down_right_point="41.807146,96.467748"
       id="path-effect208"
       is_visible="true"
       deform_type="perspective"
       horizontal_mirror="false"
       vertical_mirror="false"
       overflow_perspective="false"
       lpeversion="0" />
    <inkscape:path-effect
       effect="perspective-envelope"
       up_left_point="33.819297,91.837329"
       up_right_point="41.906658,91.837329"
       down_left_point="33.819297,99.55262"
       down_right_point="41.906658,99.55262"
       id="path-effect206"
       is_visible="true"
       deform_type="perspective"
       horizontal_mirror="false"
       vertical_mirror="false"
       overflow_perspective="false"
       lpeversion="0" />
    <inkscape:path-effect
       effect="perspective-envelope"
       up_left_point="43.236814,77.94942"
       up_right_point="48.156758,80.482582"
       down_left_point="43.236814,85.664711"
       down_right_point="48.227124,88.831163"
       id="path-effect197"
       is_visible="true"
       deform_type="perspective"
       horizontal_mirror="false"
       vertical_mirror="false"
       overflow_perspective="false"
       lpeversion="0" />
    <inkscape:path-effect
       effect="perspective-envelope"
       up_left_point="172.89844,116.9043"
       up_right_point="264.63637,83.000113"
       down_left_point="172.39985,222.34887"
       down_right_point="265.13496,173.48695"
       id="path-effect3975"
       is_visible="true"
       deform_type="perspective"
       horizontal_mirror="false"
       vertical_mirror="false"
       overflow_perspective="false"
       lpeversion="0" />
    <inkscape:path-effect
       effect="perspective-envelope"
       up_left_point="25.284274,142.1495"
       up_right_point="63.857822,158.20588"
       down_left_point="25.284274,157.67881"
       down_right_point="64.735831,178.18157"
       id="path-effect3949"
       is_visible="true"
       deform_type="perspective"
       horizontal_mirror="false"
       vertical_mirror="false"
       overflow_perspective="false"
       lpeversion="0" />
    <inkscape:path-effect
       effect="perspective-envelope"
       up_left_point="36.955109,126.94656"
       up_right_point="61.771403,119.48472"
       down_left_point="56.921994,134.57259"
       down_right_point="82.559096,125.57665"
       id="path-effect3911"
       is_visible="true"
       deform_type="perspective"
       horizontal_mirror="false"
       vertical_mirror="false"
       overflow_perspective="false"
       lpeversion="0" />
    <inkscape:perspective
       sodipodi:type="inkscape:persp3d"
       inkscape:vp_x="-35.891411 : 57.774482 : 1"
       inkscape:vp_y="0 : 969.67093 : 0"
       inkscape:vp_z="73.185922 : 57.774482 : 1"
       inkscape:persp3d-origin="18.647257 : 54.975209 : 1"
       id="perspective3870" />
    <inkscape:perspective
       sodipodi:type="inkscape:persp3d"
       inkscape:vp_x="-1457.5082 : 1449.5752 : 1"
       inkscape:vp_y="0 : 35551.701 : 0"
       inkscape:vp_z="2708.757 : 1449.5752 : 1"
       inkscape:persp3d-origin="625.62486 : 1346.9436 : 1"
       id="perspective3870-7" />
    <inkscape:perspective
       sodipodi:type="inkscape:persp3d"
       inkscape:vp_x="-1363.0031 : 741.9845 : 1"
       inkscape:vp_y="0 : 22250.44 : 0"
       inkscape:vp_z="2560.4441 : 741.9845 : 1"
       inkscape:persp3d-origin="598.72083 : 677.75225 : 1"
       id="perspective3870-7-9" />
    <inkscape:path-effect
       effect="perspective-envelope"
       up_left_point="172.89844,116.9043"
       up_right_point="264.63637,83.000113"
       down_left_point="172.39985,222.34887"
       down_right_point="265.13496,173.48695"
       id="path-effect3975-0"
       is_visible="true"
       deform_type="perspective"
       horizontal_mirror="false"
       vertical_mirror="false"
       overflow_perspective="false" />
    <inkscape:path-effect
       effect="perspective-envelope"
       up_left_point="25.284274,142.1495"
       up_right_point="63.857822,158.20588"
       down_left_point="25.284274,157.67881"
       down_right_point="64.735831,178.18157"
       id="path-effect3949-8"
       is_visible="true"
       deform_type="perspective"
       horizontal_mirror="false"
       vertical_mirror="false"
       overflow_perspective="false" />
    <inkscape:path-effect
       effect="perspective-envelope"
       up_left_point="36.955109,126.94656"
       up_right_point="61.771403,119.48472"
       down_left_point="56.921994,134.57259"
       down_right_point="82.559096,125.57665"
       id="path-effect3911-8"
       is_visible="true"
       deform_type="perspective"
       horizontal_mirror="false"
       vertical_mirror="false"
       overflow_perspective="false" />
    <inkscape:perspective
       sodipodi:type="inkscape:persp3d"
       inkscape:vp_x="167.55172 : 1038.7748 : 1"
       inkscape:vp_y="0 : 20883.097 : 0"
       inkscape:vp_z="2516.6706 : 1038.7748 : 1"
       inkscape:persp3d-origin="1342.1112 : 978.4883 : 1"
       id="perspective3870-5" />
  </defs>
  <sodipodi:namedview
     id="base"
     pagecolor="#ffffff"
     bordercolor="#666666"
     borderopacity="1.0"
     inkscape:pageopacity="0.0"
     inkscape:pageshadow="2"
     inkscape:zoom="0.13"
     inkscape:cx="3350.419"
     inkscape:cy="2330.4186"
     inkscape:document-units="mm"
     inkscape:current-layer="layer1"
     showgrid="false"
     fit-margin-top="0"
     fit-margin-left="0"
     fit-margin-right="0"
     fit-margin-bottom="0"
     inkscape:window-width="1848"
     inkscape:window-height="1016"
     inkscape:window-x="72"
     inkscape:window-y="27"
     inkscape:window-maximized="1"
     inkscape:snap-text-baseline="true"
     inkscape:pagecheckerboard="0"
     showguides="true"
     inkscape:snap-global="false" />
  <metadata
     id="metadata5">
    <rdf:RDF>
      <cc:Work
         rdf:about="">
        <dc:format>image/svg+xml</dc:format>
        <dc:type
           rdf:resource="http://purl.org/dc/dcmitype/StillImage" />
        <dc:title />
      </cc:Work>
    </rdf:RDF>
  </metadata>
  <g
     inkscape:label="Layer 1"
     inkscape:groupmode="layer"
     id="layer1"
     transform="translate(-38.720237,1042.8307)">
    <g
       id="g1607"
       transform="matrix(0.82995973,0,0,0.82995973,-55.379744,-1042.192)">
      <path
         id="path1317"
         d="m 487.4,224.4 c 0,0 22.2,223.1 -23.5,212.7 -27.6,-6.3 8.8,0.1 -69.6,-41.2 -64.6,-34 -129.8,-110.9 -146.5,-141 -10.1,-18.2 -8.5,-87.6 48.5,-127.4 57,-39.8 127.3,-65.3 201.3,-25.8 z"
         inkscape:connector-curvature="0"
         style="fill:#d4410d" />
      <path
         id="path1319"
         d="M 471.5,172.3 416.9,380 525.8,436.4 c 0,0 37.7,-8.4 36.4,-35.4 -1.3,-26.9 -13.7,-18.4 12.9,-61.9 26,-42.7 17.9,-78 13.4,-122.4 C 584.6,178.3 560.2,144 557.6,119.8 554.9,95.6 528,43.1 471.5,43.8 Z"
         inkscape:connector-curvature="0"
         style="fill:#d4410d" />
      <path
         id="path1321"
         d="m 212.9,520.4 c 6.2,-40.9 39.1,-58.7 61.9,-63 24.6,-4.6 51.7,-4.7 73.5,-17.1 C 370,427.9 369.9,362 369.9,362 h 47 46.9 c 0,0 -3.5,62.1 18.3,74.5 21.8,12.4 56.1,14.7 76.8,20.9 20.7,6.2 55.7,22.1 61.9,63 5,32.8 9.8,104.5 9.8,104.5 l -213.9,2.9 -207.7,4.4 c 0,0 -1.1,-79.1 3.9,-111.8 z"
         inkscape:connector-curvature="0"
         style="fill:#f2b181" />
      <path
         id="path1323"
         d="m 468,412.5 c -25.3,-4.7 -74.1,-20.3 -97.9,-38.1 0,-1.9 0,-3.5 0,-5.1 0,-0.1 0,-0.1 0,-0.1 0,-0.7 0,-1.3 0,-1.9 0,-0.1 0,-0.3 0,-0.4 0,-0.5 0,-1 0,-1.4 0,-0.1 0,-0.2 0,-0.3 0,-0.4 0,-0.8 0,-1.1 0,-0.1 0,-0.2 0,-0.2 0,-0.3 0,-0.6 0,-0.9 0,0 0,-0.1 0,-0.2 0,-0.2 0,-0.4 0,-0.5 0,-0.2 0,-0.3 0,-0.3 h 47 46.9 c -0.1,-0.1 -1.7,28.3 4,50.5 z"
         inkscape:connector-curvature="0"
         style="fill:#eb9850" />
      <path
         id="path1325"
         d="m 283.2,206.8 c 0,0 -20.1,-31.2 3,-78.3 24.8,-50.7 59.9,-84.7 128.3,-84.7 68.3,0 107.8,34 132.7,84.7 23.1,47.1 3.4,78.3 3.4,78.3 31.1,-6.2 25.3,27.8 15.5,43.1 -8,12.7 -8.2,14.1 -13.1,28.1 -6.9,20.2 -23,6.2 -23,6.2 -9.3,25.9 -15.9,32 -53.1,66.3 -32.4,29.8 -43.7,29.5 -60.1,29.5 -16.4,0 -27.4,0.4 -60.1,-29.5 -37.3,-34.1 -43.8,-40.4 -53.1,-66.3 0,0 -16.1,14 -23,-6.2 -4.9,-14 -5,-15.4 -13.1,-28.1 -9.6,-15.4 -15.4,-49.3 15.7,-43.1 z"
         inkscape:connector-curvature="0"
         style="fill:#f2b181" />
      <path
         id="path1327"
         d="m 212.9,520.4 c 6.2,-40.9 37.1,-58.7 61.9,-63 13.7,-2.4 32.9,-4.7 50,-10.9 7.6,-2.7 29,-13.7 29,-13.7 l 23.6,34.4 h 78.7 l 23.7,-34.4 c 0,0 21.5,11 29,13.7 17.2,6.2 36.7,6.9 50,10.9 20.7,6.2 55.7,22.1 61.9,63 5,32.8 45.8,223.2 45.8,223.2 L 581.3,771 559,632.9 c 0,0 -10.4,81.7 9.4,186.9 19.8,105.2 41.3,123.4 14.6,131.6 -26.6,8.2 -259.8,29.5 -291.1,24.7 -31.3,-4.9 -18.1,-41.5 -11.7,-100 6.4,-58.5 -18.8,-266 -18.8,-266 L 201,653.7 c 0,0 6.9,-100.6 11.9,-133.3 z"
         inkscape:connector-curvature="0"
         style="fill:#f7f6f5" />
      <path
         id="path1329"
         d="m 365.3,117.9 c 0,0 -1.3,22.6 -21,42.3 -19.7,19.8 -36,28.3 -32.3,71.5 3.7,43.2 19.7,58 6.2,80.2 -13.6,22.2 -24,28.4 -16.3,48.1 7.7,19.8 5.1,27.2 -3.5,40.7 -8.5,13.6 0,32.1 0,32.1 0,0 -15.9,-18.5 -11,-37 4.9,-18.5 -19.8,-25.9 -18.5,-50.6 1.2,-24.7 17.3,-53 1.2,-83.9 -10.2,-19.6 -36.3,-73.1 -24.7,-112.3 6.6,-22.2 17.5,-44.2 32.1,-61.2 8.2,-9.6 28.8,-48 87,-44 z"
         inkscape:connector-curvature="0"
         style="fill:#e6511c" />
      <path
         id="path1331"
         d="m 478,431.7 c 13.2,24.4 8.5,51.3 -11.4,61.3 -19.9,10.1 -47.7,-0.4 -63.7,-23.4 z"
         inkscape:connector-curvature="0"
         style="fill:#ffffff" />
      <path
         id="path1333"
         d="m 358.9,423.8 c -15,29.5 -14.1,59.9 2.6,69.2 16.7,9.4 43.1,-5.7 60.5,-33.9 z"
         inkscape:connector-curvature="0"
         style="fill:#ffffff" />
      <path
         id="path1335"
         d="m 358.9,103.3 c 0,0 -9.3,37.4 43.7,73.2 0,0 -7.9,-20.1 -10.4,-39.2 0,0 -7,23.2 42.7,34.9 0,0 -9.3,-3 -9.3,-15 0,0 77,5.5 90,40.6 13,35.2 17.9,54.5 -5.2,79.5 -23.1,25 -5.6,47.2 0.9,77.7 6.4,30.6 -2.4,38.6 -10.2,50 -11.4,16.6 2.1,37.6 2.1,37.6 0,0 -12.3,-17.3 10.9,-32.4 9.7,-6.3 24.9,-15.4 19.3,-46.9 -5.6,-31.5 0.9,-57.4 12.9,-68.5 12.1,-11.1 41.7,-29.6 32.4,-71.2 -9.3,-41.7 -9.3,-50 -4.6,-68.5 4.6,-18.5 -27.9,-62 -42.3,-78.5 C 499.4,39.5 412.8,13.8 364.3,43.7 Z"
         inkscape:connector-curvature="0"
         style="fill:#e6511c" />
      <path
         id="path1337"
         d="m 524.8,960.4 22.7,-505.1 -22.4,-8 -23.1,515.3 z"
         inkscape:connector-curvature="0"
         style="fill:#4189c6" />
      <path
         id="path1339"
         d="m 342,975.7 25.2,-1.5 -58,-523.1 -22.9,4.2 z"
         inkscape:connector-curvature="0"
         style="fill:#4189c6" />
      <path
         id="path1341"
         d="m 375.2,310.7 c -2.5,-1.4 -1,0.8 -0.6,1.3 3.4,3.6 19.8,16.6 43.2,16.2 24.1,-0.4 34.9,-9.9 37.8,-13 0.4,-0.4 0.2,-1.1 -0.4,-1.3 -4.4,-1.1 -19.9,-4.6 -32.8,-4.6 -6.5,0 -13.3,2.9 -21.8,4.1 -6.8,0.9 -15.6,2.7 -25.4,-2.7 z"
         inkscape:connector-curvature="0"
         style="fill:#ea1818" />
      <path
         id="path1343"
         d="m 365.3,203.9 c 12.8,0 23.2,10.4 23.2,23.2 0,12.8 -10.4,23.2 -23.2,23.2 -12.8,0 -23.2,-10.4 -23.2,-23.2 0,-12.8 10.4,-23.2 23.2,-23.2 z"
         inkscape:connector-curvature="0"
         style="fill:#ffffff" />
      <path
         id="path1345"
         d="m 374.6,226.9 c 0,5.4 -4.4,9.9 -9.9,9.9 -4,0 -7.5,-2.4 -9,-5.9 0.6,0.4 1.3,0.6 2,0.6 2.3,0 4.1,-1.8 4.1,-4.1 0,-2.3 -1.8,-4.1 -4.1,-4.1 -0.9,0 -1.8,0.3 -2.4,0.8 1.2,-4 5,-7 9.4,-7 5.5,-0.1 9.9,4.3 9.9,9.8 z"
         inkscape:connector-curvature="0"
         style="fill:#1c4911" />
      <path
         id="path1347"
         d="m 470.3,203.9 c 12.8,0 23.2,10.4 23.2,23.2 0,12.8 -10.4,23.2 -23.2,23.2 -12.8,0 -23.2,-10.4 -23.2,-23.2 0,-12.8 10.4,-23.2 23.2,-23.2 z"
         inkscape:connector-curvature="0"
         style="fill:#ffffff" />
      <path
         id="path1349"
         d="m 479.6,226.9 c 0,5.4 -4.4,9.9 -9.9,9.9 -4,0 -7.5,-2.4 -9,-5.9 0.6,0.4 1.3,0.6 2,0.6 2.3,0 4.1,-1.8 4.1,-4.1 0,-2.3 -1.8,-4.1 -4.1,-4.1 -0.9,0 -1.8,0.3 -2.4,0.8 1.2,-4 5,-7 9.4,-7 5.5,-0.1 9.9,4.3 9.9,9.8 z"
         inkscape:connector-curvature="0"
         style="fill:#1c4911" />
      <path
         id="path1351"
         d="m 373.2,84 c 0,0 28.6,-7.8 44.6,-9.1 16,-1.3 35.1,-2 35.1,-2 0,0 -11.8,-4.3 -35.8,-1.5 -24,2.8 -43.9,12.6 -43.9,12.6 z"
         inkscape:connector-curvature="0"
         style="fill:#d4410d" />
      <path
         id="path1353"
         d="m 378.3,100.2 c 0,0 26.3,-4.8 57.6,3.4 31.3,8.1 40,33.3 40,33.3 0,0 -11.7,-17.6 -39.9,-26.8 -28.1,-9.2 -57.7,-9.9 -57.7,-9.9 z"
         inkscape:connector-curvature="0"
         style="fill:#d4410d" />
      <path
         id="path1355"
         d="m 364.9,174.8 c -24.7,0.5 -36.3,6.7 -39.6,12.5 -4.1,7.3 6.9,4 16.8,0.1 9.8,-3.9 26.3,-6.6 36.4,-2.6 10,3.9 15.8,6.8 15.8,1.7 -2.7,-5.1 -14.4,-11.7 -29.4,-11.7 z"
         inkscape:connector-curvature="0"
         style="fill:#e6511c" />
      <path
         id="path1357"
         d="m 435,186.5 c 0,5.2 5.8,2.3 15.8,-1.7 10.1,-4 26.6,-1.3 36.4,2.6 9.8,3.9 20.9,7.2 16.8,-0.1 -3.3,-5.9 -14.9,-12 -39.6,-12.5 -14.9,0 -26.7,6.6 -29.4,11.7 z"
         inkscape:connector-curvature="0"
         style="fill:#e6511c" />
      <path
         id="path1359"
         d="m 418.9,436.7 c -0.8,-0.1 -1.5,-0.2 -2.1,-0.3 -0.5,-0.1 -1,-0.2 -1.3,-0.4 -0.3,-0.2 -0.6,-0.4 -0.8,-0.6 -0.2,-0.2 -0.3,-0.5 -0.4,-0.9 -0.1,-0.3 -0.1,-0.6 0,-0.9 0.1,-0.2 0.3,-0.5 0.5,-0.7 0.2,-0.2 0.5,-0.4 0.8,-0.6 0.3,-0.2 0.6,-0.4 0.9,-0.6 0,0 0.1,-0.1 0.3,-0.2 0.2,-0.1 0.4,-0.3 0.7,-0.6 0.3,-0.2 0.6,-0.5 1,-0.7 0.4,-0.3 0.7,-0.5 1.1,-0.8 0.4,-0.3 0.7,-0.5 1,-0.7 0.3,-0.2 0.6,-0.4 0.8,-0.5 0.1,-0.1 0.2,-0.1 0.4,-0.2 h 0.4 c 0.1,0 0.2,0.1 0.3,0.2 0.1,0.1 0.2,0.2 0.2,0.3 0.1,0.1 0.1,0.2 0.2,0.3 0,0.1 0.1,0.2 0.1,0.3 v 0.1 c 0.1,0.2 0,0.4 -0.1,0.6 -0.1,0.1 -0.2,0.3 -0.4,0.4 l -6.5,3.9 6.3,0.7 c 0.1,0 0.2,0 0.4,0.1 0.2,0.1 0.3,0.1 0.4,0.2 0.1,0.1 0.3,0.2 0.4,0.4 0.1,0.1 0.2,0.3 0.3,0.5 0,0.2 0,0.4 -0.1,0.6 -0.1,0.2 -0.3,0.3 -0.6,0.4 -0.3,0.1 -0.5,0.1 -0.9,0.1 -0.3,0 -0.7,-0.1 -1,-0.1 -0.4,-0.1 -0.7,-0.1 -1.1,-0.2 -0.5,-0.1 -0.9,-0.1 -1.2,-0.1 z"
         inkscape:connector-curvature="0"
         style="fill:#333333" />
      <path
         id="path1361"
         d="m 427.7,439.5 c -0.2,-0.8 -0.2,-1.6 -0.1,-2.5 0.1,-0.9 0.4,-1.8 0.7,-2.6 0.4,-0.9 0.9,-1.7 1.5,-2.4 0.6,-0.8 1.4,-1.4 2.3,-1.9 -0.6,-0.3 -1.2,-0.6 -1.7,-0.9 -0.5,-0.3 -1,-0.7 -1.5,-1.1 -0.4,-0.4 -0.8,-0.8 -1.1,-1.2 -0.3,-0.4 -0.5,-0.9 -0.6,-1.3 -0.1,-0.6 -0.2,-1.2 -0.2,-1.8 0,-0.6 0.1,-1.1 0.2,-1.6 0.1,-0.5 0.3,-1 0.5,-1.4 0.2,-0.4 0.5,-0.8 0.8,-1.2 0.3,-0.3 0.6,-0.6 1,-0.9 0.4,-0.2 0.7,-0.4 1.1,-0.5 0.5,-0.1 1.1,-0.1 1.6,0 0.6,0.2 1.1,0.5 1.6,1 0.5,0.5 1,1.2 1.5,2.1 0.4,0.9 0.8,2 1.1,3.3 0.2,1 0.4,1.9 0.5,2.7 0.1,0.9 0.2,1.7 0.3,2.5 0.4,0.1 0.8,0.3 1.2,0.4 0.4,0.1 0.8,0.2 1.3,0.4 0.1,0 0.2,0.1 0.3,0.1 0.1,0 0.3,0.1 0.4,0.1 0.1,0 0.2,0.1 0.3,0.2 l 0.2,0.2 v 0.2 c 0,0.1 -0.1,0.1 -0.1,0.2 -0.1,0.1 -0.1,0.1 -0.2,0.2 -0.1,0.1 -0.1,0.1 -0.1,0.1 -0.1,0.1 -0.2,0.1 -0.4,0.2 -0.3,0.1 -0.7,0.1 -1.2,0.1 -0.5,0 -1,-0.1 -1.6,-0.2 0,1.1 -0.1,2.2 -0.2,3.2 -0.1,1 -0.4,1.9 -0.6,2.7 -0.3,0.8 -0.6,1.5 -0.9,2.2 -0.4,0.6 -0.7,1.2 -1.1,1.7 -0.4,0.5 -0.8,0.8 -1.3,1.1 -0.4,0.3 -0.9,0.5 -1.3,0.6 -0.5,0.1 -0.9,0.1 -1.4,0 -0.4,-0.1 -0.9,-0.3 -1.2,-0.6 -0.4,-0.3 -0.7,-0.7 -1,-1.2 -0.2,-0.9 -0.4,-1.5 -0.6,-2.2 z m 2.4,0 c 0.1,0.6 0.4,1 0.7,1.3 0.3,0.3 0.6,0.3 1,0.2 0.4,-0.1 0.8,-0.4 1.2,-0.8 0.4,-0.5 0.8,-1.1 1.1,-1.9 0.3,-0.8 0.6,-1.8 0.8,-3 0.2,-1.2 0.3,-2.6 0.2,-4.2 l -0.4,-0.1 c -0.6,0.3 -1.1,0.6 -1.6,1 -0.5,0.4 -0.9,0.9 -1.3,1.4 -0.4,0.5 -0.7,1 -1,1.6 -0.3,0.6 -0.5,1.1 -0.6,1.7 -0.2,0.5 -0.2,1.1 -0.3,1.6 0.1,0.4 0.1,0.8 0.2,1.2 z m -0.7,-15.3 c 0.1,0.5 0.3,0.9 0.6,1.3 0.3,0.4 0.7,0.8 1.2,1.2 0.5,0.4 1,0.7 1.6,1 0.6,0.3 1.3,0.6 2,0.9 -0.1,-0.8 -0.2,-1.7 -0.4,-2.6 -0.2,-0.9 -0.4,-1.9 -0.6,-2.9 -0.2,-0.7 -0.3,-1.3 -0.5,-1.7 -0.2,-0.5 -0.4,-0.8 -0.6,-1.1 -0.2,-0.3 -0.4,-0.4 -0.7,-0.5 -0.2,-0.1 -0.5,-0.1 -0.7,0 -0.2,0.1 -0.4,0.2 -0.6,0.3 -0.2,0.2 -0.4,0.4 -0.5,0.6 -0.2,0.2 -0.3,0.5 -0.4,0.8 -0.1,0.3 -0.2,0.6 -0.3,0.9 -0.1,0.3 -0.1,0.6 -0.1,0.9 -0.1,0.3 0,0.6 0,0.9 z"
         inkscape:connector-curvature="0"
         style="fill:#333333" />
      <path
         id="path1363"
         d="m 453.5,424.1 v 2.1 c 0,0.7 0.1,1.2 0.2,1.7 0.1,0.4 0.3,0.7 0.5,0.9 0.2,0.2 0.5,0.2 0.9,0.1 0.1,0 0.3,-0.1 0.5,-0.3 0.2,-0.1 0.4,-0.3 0.6,-0.6 0.2,-0.2 0.5,-0.5 0.7,-0.9 0.3,-0.4 0.5,-0.8 0.8,-1.3 0,0 0.1,0.1 0.2,0.2 0.1,0.1 0.2,0.3 0.3,0.5 0.1,0.2 0.3,0.5 0.6,0.8 -0.3,0.6 -0.7,1.1 -1,1.5 -0.4,0.5 -0.7,0.9 -1.1,1.2 -0.4,0.3 -0.7,0.6 -1.1,0.8 -0.4,0.2 -0.7,0.4 -1,0.4 -0.4,0.1 -0.7,0.1 -1.1,0 -0.3,-0.1 -0.7,-0.2 -1,-0.4 -0.3,-0.2 -0.6,-0.5 -0.8,-0.8 -0.2,-0.4 -0.4,-0.8 -0.5,-1.3 0,-0.2 -0.1,-0.4 -0.1,-0.7 0,-0.3 0,-0.6 -0.1,-0.9 0,-0.3 0,-0.7 0,-1.1 0,-0.4 0,-0.8 0,-1.3 -0.8,0.3 -1.5,0.5 -2.2,0.8 -0.7,0.3 -1.4,0.5 -2.1,0.7 0,0.5 -0.1,1.1 -0.1,1.6 0,0.5 -0.1,1 -0.2,1.4 -0.1,0.4 -0.1,0.9 -0.1,1.2 0,0.4 -0.1,0.7 -0.1,1 -0.1,0.7 -0.3,1.2 -0.5,1.5 -0.2,0.3 -0.4,0.5 -0.6,0.6 -0.1,0 -0.3,0 -0.4,0 -0.1,0 -0.3,-0.1 -0.4,-0.1 -0.1,-0.1 -0.2,-0.1 -0.3,-0.3 -0.1,-0.1 -0.2,-0.2 -0.2,-0.4 0,-0.1 0,-0.2 0,-0.3 0,-1 0.1,-1.9 0.2,-2.8 0.1,-0.9 0.2,-1.8 0.3,-2.6 -0.3,0.1 -0.6,0.1 -0.9,0.1 -0.3,0 -0.6,0 -0.9,-0.1 -0.3,-0.1 -0.5,-0.2 -0.8,-0.4 -0.2,-0.2 -0.5,-0.4 -0.7,-0.7 0,-0.1 -0.1,-0.2 -0.1,-0.3 0,-0.1 -0.1,-0.2 -0.1,-0.2 -0.1,-0.3 0,-0.4 0.2,-0.5 0.1,0 0.2,0 0.4,0.1 0.2,0.1 0.4,0.2 0.7,0.5 0.3,-0.1 0.5,-0.2 0.8,-0.2 0.3,-0.1 0.6,-0.1 0.9,-0.2 l 0.8,-0.2 c 0.1,-0.6 0.2,-1.2 0.2,-1.7 0.1,-0.6 0.1,-1.1 0.2,-1.6 0,-0.3 0,-0.7 0,-1 0,-0.3 -0.1,-0.6 -0.1,-0.9 -0.1,-0.2 -0.1,-0.4 -0.2,-0.6 -0.1,-0.2 -0.2,-0.3 -0.3,-0.4 -0.1,-0.1 -0.3,-0.2 -0.4,-0.2 -0.2,0 -0.4,0 -0.6,0 -0.2,0 -0.4,0.1 -0.6,0.2 -0.2,0.1 -0.5,0.3 -0.7,0.5 -0.3,0.2 -0.5,0.4 -0.8,0.7 -0.3,0.3 -0.6,0.6 -0.9,1 -0.1,0.1 -0.2,0.3 -0.3,0.3 -0.1,0.1 -0.2,0.1 -0.3,0.1 0,0 -0.1,-0.1 -0.2,-0.2 -0.1,-0.1 -0.1,-0.3 -0.2,-0.6 -0.1,-0.3 -0.1,-0.6 0,-0.9 0.1,-0.3 0.2,-0.6 0.4,-0.9 0.2,-0.3 0.4,-0.6 0.7,-0.8 0.3,-0.3 0.6,-0.5 0.9,-0.7 0.3,-0.2 0.6,-0.4 0.9,-0.5 0.3,-0.1 0.6,-0.3 0.9,-0.3 0.4,-0.1 0.8,-0.1 1.2,-0.1 0.4,0 0.8,0.1 1.1,0.3 0.3,0.2 0.6,0.4 0.9,0.8 0.3,0.4 0.5,0.8 0.6,1.4 0.1,0.3 0.1,0.6 0.1,1 v 1.3 1.5 c 0,0.5 -0.1,1.1 -0.1,1.7 0.6,-0.2 1.3,-0.4 2,-0.6 0.7,-0.2 1.5,-0.4 2.2,-0.7 0.1,-1 0.2,-2.1 0.3,-3.3 0.1,-1.1 0.3,-2.2 0.4,-3.4 0.1,-0.4 0.2,-0.7 0.3,-0.9 0.2,-0.3 0.4,-0.4 0.7,-0.5 h 0.4 c 0.1,0 0.2,0 0.3,0.1 0.1,0.1 0.2,0.1 0.3,0.2 0.1,0.1 0.1,0.2 0.2,0.4 0,0.1 0.1,0.3 0.1,0.5 v 0.6 c 0,0.4 -0.1,0.8 -0.2,1.3 -0.1,0.4 -0.1,0.9 -0.2,1.4 -0.1,0.5 -0.1,1 -0.1,1.5 0,0.5 -0.1,1 -0.1,1.5 0.4,-0.1 0.7,-0.2 1,-0.3 0.3,-0.1 0.5,-0.2 0.6,-0.2 0.1,0 0.1,0 0.2,-0.1 h 0.2 c 0.2,0 0.3,-0.1 0.4,0 0.1,0 0.2,0 0.3,0.1 0.1,0 0.1,0.1 0.2,0.2 0,0.1 0.1,0.2 0.1,0.3 v 0.3 c 0,0.1 -0.1,0.2 -0.2,0.2 -0.1,0.1 -0.1,0.1 -0.2,0.2 -0.1,0 -0.2,0.1 -0.2,0.1 -0.2,0.1 -0.3,0.1 -0.3,0.1 -0.1,0 -0.1,0 -0.1,0.1 0,0 0,0 -0.1,0 0,0 0,0 -0.1,0 0,0 -0.1,0 -0.2,0.1 -0.1,0 -0.2,0.1 -0.4,0.1 -0.2,0.1 -0.4,0.1 -0.6,0.2 -0.3,0.1 -0.5,0.2 -0.7,0.3 z"
         inkscape:connector-curvature="0"
         style="fill:#333333" />
      <path
         id="path1365"
         d="m 466.7,425.2 c -0.3,0.2 -0.6,0.4 -1,0.6 -0.3,0.2 -0.6,0.4 -0.9,0.7 -0.3,0.2 -0.6,0.4 -0.9,0.6 -0.3,0.2 -0.6,0.3 -0.8,0.3 -0.3,0.1 -0.5,0.1 -0.7,0 -0.2,-0.1 -0.3,-0.2 -0.4,-0.4 0,-0.2 -0.1,-0.4 0,-0.5 0,-0.2 0.1,-0.3 0.1,-0.5 0.1,-0.1 0.1,-0.3 0.2,-0.4 0.1,-0.1 0.1,-0.2 0.2,-0.2 l 5.5,-3.6 -6.8,-0.3 c -0.2,0 -0.4,-0.1 -0.6,-0.1 -0.1,-0.1 -0.3,-0.2 -0.3,-0.5 0,0 0,0 0,-0.1 0,-0.1 0,-0.2 0,-0.3 0,-0.1 0,-0.2 0,-0.3 0,-0.1 0,-0.2 0.1,-0.4 0,-0.1 0.1,-0.2 0.2,-0.3 0.1,-0.1 0.2,-0.2 0.4,-0.2 h 0.4 c 0.2,0 0.5,0 0.8,0.1 0.3,0 0.7,0.1 1.1,0.1 0.4,0.1 0.8,0.1 1.2,0.2 0.4,0.1 0.7,0.1 1.1,0.2 0.3,0 0.6,0.1 0.8,0.1 0.2,0 0.3,0 0.3,0.1 0.4,0.1 0.7,0.1 1.1,0.1 0.3,0 0.6,0.1 0.9,0.2 0.3,0.1 0.5,0.2 0.7,0.3 0.2,0.2 0.3,0.4 0.4,0.7 0.1,0.4 0.1,0.7 0.1,1 0,0.3 -0.2,0.6 -0.4,0.9 -0.2,0.3 -0.6,0.6 -1,1 -0.5,0.1 -1.1,0.5 -1.8,0.9 z"
         inkscape:connector-curvature="0"
         style="fill:#333333" />
      <path
         id="path1367"
         d="m 432.1,484.9 c 0,0 -88.1,-49.1 -95.1,-17.5 -7,31.6 -15.1,55.7 8.2,59.7 23.3,4.1 86.9,-42.2 86.9,-42.2 z"
         inkscape:connector-curvature="0"
         style="fill:#3373aa" />
      <path
         id="path1369"
         d="m 416.9,477.6 c 24.8,-13.4 73.9,-36.4 79.9,-13 8.2,31.5 17.1,55.3 -6,60.2 -16.2,3.5 -53.2,-17.3 -73.8,-29.9 -0.3,-15.3 0.1,-2.2 -0.1,-17.3 z"
         inkscape:connector-curvature="0"
         style="fill:#4189c6" />
      <path
         id="path1371"
         d="m 532.2,968.6 h -34.7 c -0.6,0 -1.1,-0.5 -1.1,-1.1 v -49.1 c 0,-0.6 0.5,-1.1 1.1,-1.1 h 34.7 c 0.6,0 1.1,0.5 1.1,1.1 v 49.1 c 0,0.6 -0.5,1.1 -1.1,1.1 z"
         inkscape:connector-curvature="0"
         style="fill:#cccccc" />
      <path
         id="path1373"
         d="m 373.6,979.7 -34.4,4.7 c -0.6,0.1 -1.2,-0.4 -1.3,-1 l -6.6,-48.7 c -0.1,-0.6 0.4,-1.2 1,-1.3 l 34.4,-4.7 c 0.6,-0.1 1.2,0.4 1.3,1 l 6.6,48.7 c 0,0.7 -0.4,1.3 -1,1.3 z"
         inkscape:connector-curvature="0"
         style="fill:#cccccc" />
      <path
         id="path1375"
         d="m 538.1,526.2 c 5.3,8.7 5.1,17.9 2.6,27.4 -5.1,-1.8 -1.1,-6.2 -3.1,-10.1 -4.2,5.1 -9.9,7.9 -15.9,12.9 5.6,0.5 8.3,-2.2 11.5,-3.5 3.7,-1.5 3.8,-1.4 4.6,2.8 -2.7,2.2 -5.2,4.9 -8.6,6 -1.6,0.6 -3.4,0.6 -5.6,1.7 2.9,-1.1 5.4,-1.3 7.7,-2.1 0.6,0 1.2,0.2 1.7,0.6 0.9,2.7 1.7,5.4 2.6,8.1 0.8,1.1 0,1.7 -0.8,2.2 -4.7,5.6 -8.4,11.9 -12.7,17.9 4.3,-1.7 6.4,-6.1 10.4,-8.1 0.6,-0.1 1.3,0 1.8,0.3 1.2,2.4 -0.2,4.1 -1.4,5.8 1.4,-0.5 1.3,-2.7 2.8,-3.3 1.1,0.2 1.8,0.6 1.2,1.8 -0.7,5.9 -5.2,11.5 -1.5,17.8 -0.6,3.8 -4.3,8 1.3,11.1 0.5,5.3 -3.5,9.5 -3.8,14.6 0.5,1.2 0.8,2.4 -0.5,3.4 -3.7,2.2 -3.9,6.9 -7,9.6 -0.4,1.1 -2.7,2.4 0.4,3.1 2.7,0.4 4.3,-3.2 7.2,-1.9 0.2,0.6 0.2,1.2 -0.2,1.7 -0.9,3.3 -1.5,5.1 2.2,8.5 4.3,4 5.1,12.3 4.1,18.8 -1.7,10.2 -1.1,19.7 2.3,29.5 2.5,7.1 0.8,14.2 -5.6,21.2 -0.2,-3.7 -0.4,-6 -0.5,-8.8 -2.7,2.1 -1.6,6.2 -5.1,7.8 -0.2,-3.8 -0.4,-7.5 -0.5,-11.2 -1,-1.3 -2.8,-1.7 -3.7,-3.1 -1.6,-6.1 -5.6,-10.9 -9,-16.1 -7.3,-11.3 -10.4,-22.9 -2.2,-35.1 1.5,-2.3 0.3,-3.2 -1,-4.5 -2.2,-2.3 -4,-5.5 -2.1,-8 3.7,-5 0.6,-8.7 -1.2,-12.8 -0.2,-0.6 -0.2,-1.3 0,-1.9 0.5,-0.4 1.2,-0.5 1.8,-0.4 1.9,0.6 3.1,2.4 5,3 0.8,0.3 1.9,0.6 2.2,-0.5 0.2,-0.9 -0.7,-1.5 -1.3,-2 -2.3,-2.6 -6,-3.3 -8.5,-5.7 -3.3,-3.5 -1.2,-8.3 -3,-12.1 -4,-4.9 -4.6,-10.5 -3.9,-16.5 5.5,0.6 3.9,5.9 5.8,8.9 1.3,1.9 2.7,3.7 5.1,4.3 -2.1,-1.3 -4.9,-2 -4,-5.5 3.3,-1.4 5.9,1.6 9,1.4 0.1,0.9 0,-0.6 0.7,0 0.5,0.5 0.9,0 0.4,-0.3 -2.7,-1.5 -5.2,-3.3 -8,-4.8 -2.9,-2.4 -6,-4.7 -7.8,-8.2 4.1,-7 3.6,-13.4 -0.8,-20.5 -3.5,-5.6 -2.5,-12.4 -1.6,-18.8 0.3,-2 0.7,-3.8 -1.4,-5.5 -9.9,-7.8 -11.4,-18.2 -8.6,-29.7 1,-3.9 0.7,-6.6 -2.1,-9.8 -6.8,-7.6 -8,-16.9 -5.1,-26.4 1.7,-5.5 0.9,-9.2 -3.3,-13.8 -9.5,-10.1 -10.3,-23.1 -8,-36.1 0.7,-3.9 0.3,-6.4 -2.2,-9.2 -3.7,-4.1 -6.4,-8.9 -8.2,-14.2 -2.8,-8.3 -0.4,-13.8 7.9,-16.8 9.8,-3.5 19.5,-1.8 28.8,2 5.5,2.2 10.4,7.3 15.8,7.6 5,0.3 9.3,-5.8 14.8,-7.7 9.2,-3.2 18.3,-4.1 27.5,-0.3 5.9,2.4 8.7,6.4 8.6,13.2 -0.2,15.1 -2.4,29.2 -13.9,40.3 -2.1,2 -1.1,4.2 -1.2,6.4 0.7,1.1 0,1.7 -0.8,2.2 -5.2,2.5 -5.9,9.2 -11,11.9 -5.8,3.8 -12,6.9 -17.4,10.4 4,-0.9 7.4,-5.8 12.8,-3.7 -2.7,7.9 -10.1,7.5 -15,9.7 7.7,-1.5 15.1,-6 22.3,-10.9 2,-1.3 5,-6 8,-5.2 1.8,5.2 -4,9.9 -6.7,12.9 -2.3,2.5 -5.2,4.2 -8.3,5.6 -4.3,0.4 -8.1,2.8 -11.1,3.4 3.4,-1.2 8,-2.8 12.7,-4 2,-1 3.8,-2.6 6.2,-2.6 1,0.3 1.8,0.8 1.3,2.1 3.6,6.9 5.3,14.1 4,21.9 -2.3,0.7 -2.4,-2 -3.8,-2.6 -5.7,2.4 -8.9,8.6 -15.3,9.9 1.8,-0.2 3.8,-2.2 5.1,-0.3 1.4,2.1 -1,3.1 -2.6,3.8 -1.6,0.7 -3.2,1.3 -4.1,1.8 3.9,-1.1 7.7,-3.9 11.7,-6.4 3.9,-2.4 4.9,-0.4 4.3,3.4 -1.5,2.2 -3.2,4.2 -5.9,5.2 -3,0 -5.7,1.1 -8.4,2.2 -0.9,0.3 0.1,1.2 -0.3,0.4 0,-0.1 0.1,-0.3 0.5,-0.3 2.5,-0.6 4.8,-2.8 7.7,-1.3 0.9,1.5 0.2,3.2 1.2,4.1 z"
         inkscape:connector-curvature="0"
         style="fill:#d4410d" />
      <g
         id="g1489"
         style="fill:#e6511c">
        <path
           id="path1377"
           d="m 536.8,555.1 c 1.2,-2.5 0.1,-2.7 -1.8,-1.7 -3.4,1.8 -6.7,3.8 -10.2,5.5 -1.4,0.7 -3.4,0.9 -4.2,-0.9 -0.7,-1.6 -0.7,-3.4 1.4,-4.6 5.6,-3.4 11.7,-6.2 15.1,-12.4 0.2,-0.4 1.5,-0.8 1.7,-0.6 1.2,1.1 1.8,2.6 1.9,4.2 0.2,3 -2.7,6 0,9 -0.3,2.3 -1.1,4.3 -3.8,4.6 -1.1,-1 -0.9,-2 -0.1,-3.1 z"
           inkscape:connector-curvature="0" />
        <path
           id="path1379"
           d="m 507.9,605.9 c -3.5,-2.2 -1.5,-7.6 -5.4,-9.6 -0.3,-1.6 -0.2,-3 1.2,-4 4.3,0.4 5.1,5.1 8.3,6.9 0.6,2.4 2.7,3.2 4.5,4.4 1.4,0.8 3.4,1.5 2.4,3.9 -4,1.3 -6.5,-3.2 -10.3,-2.7 0.1,0.4 -0.1,0.9 -0.7,1.1 z"
           inkscape:connector-curvature="0" />
        <path
           id="path1381"
           d="m 536.8,520.8 c 2,-1.5 4,-3 6,-4.4 1,-4.5 -1.2,-9.6 2.5,-13.6 0.8,1.4 1.6,2.8 2.5,4.2 0.4,5.7 -2.6,9.9 -6,13.9 -1.4,1.7 -3.8,2.6 -3.6,5.4 -1.3,-0.6 -1.3,-1.9 -1.4,-3.1 -0.8,-0.8 -0.8,-1.6 0,-2.4 z"
           inkscape:connector-curvature="0" />
        <path
           id="path1383"
           d="m 536.6,615.7 c -1.1,-0.3 -2.1,-0.9 -3.2,-0.8 -1.2,0.1 -5.5,0.9 -8.1,2.5 -2.9,1.8 4.8,-5.5 5.7,-6.7 1.5,-1.9 2.8,-4.1 4.2,-6.1 2,3.5 2.1,7.2 1.4,11.1 z"
           inkscape:connector-curvature="0" />
        <path
           id="path1385"
           d="m 536.9,586.8 c -0.4,-0.4 -0.8,-0.9 -1.2,-1.3 -1.4,-0.5 -0.6,-2.1 -1.4,-2.9 -0.5,0 -0.9,0.1 -1.4,0.1 -0.9,-3.9 0.7,-7.6 1.3,-11.3 0.4,-0.5 0.9,-0.9 1.3,-1.4 2.6,5.5 3.8,11 1.4,16.8 z"
           inkscape:connector-curvature="0" />
        <path
           id="path1387"
           d="m 510.7,630.8 c -0.1,0.6 -0.2,1.2 -0.3,1.7 -4.9,-5.8 -3.7,-12.9 -3.9,-19.7 2.4,3.6 1.3,8.5 4.4,11.8 -0.5,2.1 1.8,4.1 -0.2,6.2 z"
           inkscape:connector-curvature="0" />
        <path
           id="path1389"
           d="m 549.2,454.8 c 0.5,-0.5 1,-1.1 1.5,-1.6 2.6,5.4 3,11 1,16.7 -0.6,0.4 -1.2,0.4 -1.7,-0.1 -0.9,-1 -1.4,-2.2 -1.5,-3.6 0.7,-3.7 -0.6,-7.7 0.7,-11.4 z"
           inkscape:connector-curvature="0" />
        <path
           id="path1391"
           d="m 550.5,469.9 h 1.2 c -1.4,5.7 -3.4,11.1 -7.9,15.2 -0.5,-0.5 -1,-1 -1.5,-1.5 1.5,-5.3 4.9,-9.5 8.2,-13.7 z"
           inkscape:connector-curvature="0" />
        <path
           id="path1393"
           d="m 536.8,555.1 c 0,1 0.1,2 0.1,3.1 -0.8,1.8 -1.9,3.3 -4,3.8 -0.5,0 -1.1,0 -1.6,0 -1.5,0.9 -2.7,1.1 -2.6,-1.3 2.7,-1.8 5.4,-3.7 8.1,-5.6 z"
           inkscape:connector-curvature="0" />
        <path
           id="path1395"
           d="m 532.8,646.1 c -0.1,-0.5 -0.1,-0.9 -0.2,-1.4 -2.6,-3.6 -2.6,-7.4 -1,-11.4 0.4,-1 0.8,-2 1.2,-3 2.7,5.3 2.7,10.5 0,15.8 z"
           inkscape:connector-curvature="0" />
        <path
           id="path1397"
           d="m 525.9,708.9 c 1.8,0.4 4.3,-0.1 3.7,3.1 -1.1,0.9 -1.4,2.8 -3.3,3.1 -1.1,-1.9 -0.5,-4.1 -0.4,-6.2 z"
           inkscape:connector-curvature="0" />
        <path
           id="path1399"
           d="m 497,457.4 c 6.1,4.4 13.2,6.9 19.6,10.7 -14.5,-2.4 -27.3,-8.2 -37.6,-19 -3.5,-4.5 -4.7,-9.5 -3,-14.9 1.1,-5.6 0.3,-4.9 2.5,-1.7 3.1,4.5 7.4,8.8 10.2,12.6 2,1.4 -4.4,3.4 0.3,4.7 2.7,2.6 6.4,4 8,7.6 z"
           inkscape:connector-curvature="0" />
        <path
           id="path1401"
           d="m 518.7,663.5 c 0.4,-1.3 0.3,-3.1 1.9,-3.2 1.6,-0.2 1.2,1.6 1.4,2.6 0.6,2.9 0.9,5.8 1.4,8.8 2,-0.5 0.3,-2.8 2.1,-3.8 1.1,8.8 -2.2,16.9 -2.5,26.4 -6.8,-10.2 -14.6,-18.9 -6.8,-30.9 0.8,0.9 1.2,1.9 1.2,3.1 0.3,-1.2 0.5,-2.2 1.3,-3 z"
           inkscape:connector-curvature="0" />
        <path
           id="path1403"
           d="m 549.2,454.8 c 1.8,4.5 2.7,8.9 -1,12.9 -0.1,0.3 -0.2,0.5 -0.3,0.8 -7.7,10.1 -18.7,13.7 -30.3,16.4 5.1,-4.4 12.5,-5.2 16.7,-10.9 0.2,-1.4 1.1,-2.6 2.3,-3.1 2.5,-1.1 4,-2.3 1.6,-4.9 3.1,-2.9 5.7,-6.1 7.8,-9.9 0.7,-1.4 1.1,-3.3 3.2,-1.3 z"
           inkscape:connector-curvature="0" />
        <path
           id="path1405"
           d="m 545.1,415.9 c 2.9,-2.5 5.3,-5.3 7.5,-8.5 1,-1.4 4.2,-5.7 4.7,-8.2 1.7,-8.6 1.3,7.5 1.4,9.7 0.1,1.9 0.9,3.8 -0.3,5.6 -1.2,2.2 -1.7,4.9 -4.5,5.8 -6.9,8 -19.1,14.2 -29.1,14.3 4.8,-2.6 8.9,-4.9 13,-7.1 1.7,-3.7 5.5,-5.2 8.2,-7.8 2.2,-1.8 -2.7,-2 -0.9,-3.8 z"
           inkscape:connector-curvature="0" />
        <path
           id="path1407"
           d="m 545.2,502.9 c -0.2,4.2 -0.2,8.5 -2,12.4 -0.2,0.4 -0.8,0.4 -0.9,-0.1 -0.2,-1.4 -0.2,-3.1 -2.9,-0.7 -4.2,3.7 -9.4,5.4 -15.6,7.4 -0.5,0.2 -0.9,-0.5 -0.5,-0.8 3,-2.3 6.2,-3.2 9,-5.7 0.4,-0.4 0,-1 -0.5,-0.8 -2.5,1.1 -4.6,2 -7,3 -0.4,0.2 -0.8,-0.3 -0.6,-0.7 1.4,-2.6 3.7,-3.3 5.6,-4.4 4.6,-2.6 10.1,-4.9 11.8,-10.1 1.9,-5.7 1.4,-4.9 3.5,0.3 0.1,0 0.1,0.1 0.1,0.2 z"
           inkscape:connector-curvature="0" />
        <path
           id="path1409"
           d="m 488.7,493.2 c -0.2,-0.1 -0.5,-0.2 -0.5,-0.4 -1,-4.2 -4.8,-9.6 -0.4,-12.2 2.1,-1.2 5.8,5.6 9.1,8.4 1.3,4.8 8,4.5 9.1,9.6 2.2,2.9 6.3,2.5 10.1,6.2 -9.9,-2.6 -17.6,-5.5 -24.2,-11.1 -0.7,-0.6 -1.9,-4.8 -3.4,-0.4 z"
           inkscape:connector-curvature="0" />
        <path
           id="path1411"
           d="m 488.8,450.7 c -2.7,-0.2 -4.4,-1.6 -5.3,-4.4 1.9,-0.3 4.4,2.3 5.2,-1.2 10.3,5.9 21.1,11 31.2,18.7 -8.2,-1.2 -14.6,-5.3 -21.5,-7.8 -3.8,-0.7 -6.7,-3.1 -9.6,-5.3 z"
           inkscape:connector-curvature="0" />
        <path
           id="path1413"
           d="m 513.6,542.5 c 1.1,0.6 2.2,1.3 5,2.9 -9.4,-0.2 -14.5,-5.9 -20.8,-8.4 -1.1,0.4 -1.6,-0.3 -2.1,-1.1 -2.1,-4.2 -3.9,-8.5 -0.9,-13.6 3.2,3.4 6.1,6.5 9,9.6 0.5,1.2 0.1,2.7 1.3,3.6 2.7,2.5 6.4,3.7 8.5,7 z"
           inkscape:connector-curvature="0" />
        <path
           id="path1415"
           d="m 534.2,571.4 c 2.5,4.1 0.2,7.7 -1.3,11.3 -2.3,3.7 -5.7,6.5 -9.1,9.3 -0.7,0.6 -1.6,1.7 -2.8,0.8 1.6,-1.7 -2.2,-2.1 -0.8,-3.9 4.5,-5.9 9.6,-11.3 12.4,-18.4 0.5,0.3 1,0.6 1.6,0.9 z"
           inkscape:connector-curvature="0" />
        <path
           id="path1417"
           d="m 506.5,570.2 c -2.6,-3.6 -3.9,-9.1 -2.1,-13.6 11.6,20 17.5,17.6 19.9,20 -6.8,-0.6 -11.2,-4.6 -16.6,-6.4 -0.4,0.7 -0.8,0.7 -1.2,0 z"
           inkscape:connector-curvature="0" />
        <path
           id="path1419"
           d="m 476.3,434.2 c -0.8,5.3 0.9,10.1 2.7,14.9 3.5,9.4 10.3,15.5 19.2,19.6 0.6,1.4 -0.1,2.1 -1.3,2.6 -14.6,-4.5 -25.4,-23.9 -20.6,-37.1 z"
           inkscape:connector-curvature="0" />
        <path
           id="path1421"
           d="m 538.2,465.9 c 1.1,2.9 3,1.6 5.9,-0.4 -2.3,5.7 -7,5.9 -9.8,8.4 -5.6,0.7 -9.9,5.3 -16.4,5.6 6.1,-6.4 13.4,-9.7 20.3,-13.6 z"
           inkscape:connector-curvature="0" />
        <path
           id="path1423"
           d="m 545.1,415.9 c 0.5,0.4 1.1,0.9 1.6,1.3 1.2,0.8 3.3,-1.4 3.6,0.5 0.3,2 -1.8,2.5 -3.6,2.6 -3.3,2.2 -6.4,4.9 -10.5,5.8 -4.9,1.8 -9.5,4.6 -15.9,5.5 8.7,-6.1 16.4,-11.5 24.8,-15.7 z"
           inkscape:connector-curvature="0" />
        <path
           id="path1425"
           d="m 553.1,419.4 c 1.1,-2 1.6,-4.5 4.2,-5.5 -0.1,10.1 -4.4,17.6 -13.7,22.1 -1.6,0.2 -3.7,2 -4.1,-1.4 5.8,-2.7 10.7,-6.5 13.9,-12.2 0.7,-1.1 1.7,-2.2 -0.3,-3 z"
           inkscape:connector-curvature="0" />
        <path
           id="path1427"
           d="m 531.6,633.3 c 1.6,3.7 0.7,7.6 1,11.4 -2.5,0 -3.2,5.3 -6.8,2.4 -0.2,-1.7 -1,-3 -2.3,-4 3.2,-2.9 3.8,-7.8 8.1,-9.8 z"
           inkscape:connector-curvature="0" />
        <path
           id="path1429"
           d="m 531.1,698.3 c -3.2,-7.1 -4.1,-14 2.3,-21.2 1.8,6.5 -1.5,11.6 -0.9,16.9 -1.2,1.2 0.3,3.3 -1.4,4.3 z"
           inkscape:connector-curvature="0" />
        <path
           id="path1431"
           d="m 547.9,468.4 c 0,-0.3 0.1,-0.6 0.3,-0.8 1.9,-0.4 2,1 2.3,2.2 -2.5,4.7 -4.4,9.8 -8.2,13.7 -1.8,1 -3.5,2 -5.3,3 -1.5,0.4 -3.1,1.1 -2.9,-1.6 6.1,-4.1 12.9,-7.8 13.8,-16.5 z"
           inkscape:connector-curvature="0" />
        <path
           id="path1433"
           d="m 506.1,498.6 c -2.7,-3.5 -9.8,-2.8 -9.1,-9.5 5,2.5 10.2,4.5 14.8,8.6 -1.9,1.8 -4,0.2 -5.7,0.9 z"
           inkscape:connector-curvature="0" />
        <path
           id="path1435"
           d="m 503.4,535.8 c -4.8,-1.7 0.2,-2.6 0.3,-3.9 5.6,2.7 11.3,5.4 16.2,9.8 -2,1.7 -3.4,-0.6 -5,-0.4 -4.3,-0.8 -7.7,-3.7 -11.5,-5.5 z"
           inkscape:connector-curvature="0" />
        <path
           id="path1437"
           d="m 495.6,535.8 c 0.7,0.4 1.4,0.8 2.1,1.1 2.3,5.6 8.1,7.7 12.4,11.6 -6.4,0.5 -11.9,-4.4 -14.5,-12.7 z"
           inkscape:connector-curvature="0" />
        <path
           id="path1439"
           d="m 518.9,629.4 c 1.7,1.2 4.9,2.2 3.2,4.9 -1.6,2.6 -4.5,1.6 -6.7,0.2 -1.3,-0.8 -2.3,-2.1 -3.4,-3.2 -1,-2.6 0.8,-2.6 2.4,-2.5 1.5,0 2.8,1.5 4.5,0.6 z"
           inkscape:connector-curvature="0" />
        <path
           id="path1441"
           d="m 488.8,492.9 c 5.8,6.5 7.8,9.2 13.6,11.4 0.1,2.6 -1.2,2.2 -2.8,1.4 -5.4,-2.6 -9.9,-6.9 -11.4,-12.9 -0.1,-3.3 0.6,0.1 0.6,0.1 z"
           inkscape:connector-curvature="0" />
        <path
           id="path1443"
           d="m 518.9,607.4 c -0.8,-2.2 -2.8,-2.4 -4.6,-3.2 -2.1,-0.9 -3.9,-2.3 -2.3,-5 4,2.3 8.5,3.9 12.2,7.9 -2.2,0 -3.7,0.2 -5.3,0.3 z"
           inkscape:connector-curvature="0" />
        <path
           id="path1445"
           d="m 477.4,402.7 c -3.2,-5 -2.7,-28.7 -2.3,-27.2 1.7,5.3 3.7,9.3 4.2,10.3 2.7,4.6 6.7,8 10.6,11.4 0.7,1.1 0,2.1 -0.3,3.1 0.5,2.9 2,2.3 4.6,6.3 7.3,5.4 15.9,8.3 23.6,12.9 -13.1,-2.5 -25.3,-7.1 -35.6,-15.8 -0.9,-0.8 -1.5,-3.4 -3.5,-1.1 -0.4,0.7 -0.8,0.7 -1.3,0.1 z"
           inkscape:connector-curvature="0" />
        <path
           id="path1447"
           d="m 488.7,400.3 c 0.4,-1 0.9,-2 1.3,-3.1 9.4,4.4 18.4,9.6 27.8,16.6 -9.4,-1.3 -16.2,-5.9 -23.6,-8.9 -2.1,-1.2 -5.2,-1.3 -5.5,-4.6 z"
           inkscape:connector-curvature="0" />
        <path
           id="path1449"
           d="m 477.4,402.7 c 0.4,0 0.8,-0.1 1.2,-0.1 4.7,7 10.7,12.6 18.2,16.7 1.1,1.6 1.1,2.6 -1.3,2.5 -9.1,-3.4 -15,-9.8 -18.1,-19.1 z"
           inkscape:connector-curvature="0" />
        <path
           id="path1451"
           d="m 495.6,421.9 c 1,-0.5 1.3,-1.4 1.3,-2.5 5.4,1.2 10.5,3.4 15.3,6.5 -5.6,-1.3 -11.1,-2.7 -16.6,-4 z"
           inkscape:connector-curvature="0" />
        <path
           id="path1453"
           d="m 518.9,629.4 c -0.9,2.3 -2.2,2.4 -4,0.9 -1.3,-1.1 -2.4,-0.8 -2.9,0.9 -0.4,-0.3 -0.8,-0.4 -1.3,-0.5 0.4,-2 -2.5,-4.1 0.1,-6.1 2.9,1.3 5.7,2.6 8.1,4.8 z"
           inkscape:connector-curvature="0" />
        <path
           id="path1455"
           d="m 539.5,434.7 c 1,1.6 2.6,1.1 4.1,1.3 -4.9,1.4 -9.9,2.8 -14.8,4.2 -0.2,-0.5 -0.4,-1 -0.6,-1.5 3.8,-1.3 7.5,-2.7 11.3,-4 z"
           inkscape:connector-curvature="0" />
        <path
           id="path1457"
           d="m 534,485 c 0.6,1.3 1.8,1.3 2.9,1.6 -5.1,1.4 -10.1,2.8 -15.2,4.2 3.8,-3.1 7.9,-4.9 12.3,-5.8 z"
           inkscape:connector-curvature="0" />
        <path
           id="path1459"
           d="m 531.1,698.3 c 0.3,-1.5 -0.2,-3.2 1.4,-4.3 0.6,4.7 4.9,7.2 6.7,11.3 -3,-2.2 -6.9,-3 -8.1,-7 z"
           inkscape:connector-curvature="0" />
        <path
           id="path1461"
           d="m 523.5,643.1 c 1.1,-0.1 2.7,-0.6 3,-0.1 1,1.4 0.9,3 -0.7,4.1 -1.4,0.2 -2.9,2.3 -4.3,0.3 -1.3,-2.1 0.8,-3.1 2,-4.3 z"
           inkscape:connector-curvature="0" />
        <path
           id="path1463"
           d="m 518.7,663.5 v 9.1 c -3.4,-2.9 -2.1,-6.2 -2.5,-9.3 1,-1.3 1.7,0.2 2.5,0.2 z"
           inkscape:connector-curvature="0" />
        <path
           id="path1465"
           d="m 536.8,520.8 v 2.4 c -3.7,0.8 -7.4,1.7 -11.1,2.5 3.3,-2.7 6.8,-4.8 11.1,-4.9 z"
           inkscape:connector-curvature="0" />
        <path
           id="path1467"
           d="m 499.6,505.7 c 1.1,-0.1 2.3,-0.1 2.8,-1.4 3,0.7 6.1,1.3 9.3,4 -4.7,-0.3 -8.5,-0.9 -12.1,-2.6 z"
           inkscape:connector-curvature="0" />
        <path
           id="path1469"
           d="m 503.4,535.8 c 4.3,0.8 8,2.9 11.5,5.4 -0.4,0.4 -0.8,0.8 -1.2,1.2 -4.1,-1.3 -7.4,-3.6 -10.3,-6.6 z"
           inkscape:connector-curvature="0" />
        <path
           id="path1471"
           d="m 496.9,471.3 c 0.4,-0.9 0.9,-1.8 1.3,-2.6 2.7,1 5.4,1.9 8.1,2.9 0.3,1.2 0.1,1.8 -1.3,1.3 -2.7,-0.5 -5.4,-1 -8.1,-1.6 z"
           inkscape:connector-curvature="0" />
        <path
           id="path1473"
           d="m 534.2,582.6 c 0.5,1 1,1.9 1.4,2.9 -1.1,2.9 -2.6,5.5 -7.1,7.1 2.4,-4 5.5,-6.3 5.7,-10 z"
           inkscape:connector-curvature="0" />
        <path
           id="path1475"
           d="m 507.9,605.9 c 0.3,-0.4 0.5,-0.9 0.8,-1.3 2.2,2.7 5.2,4.2 9.4,6.8 -5.7,0 -8.2,-2.3 -10.2,-5.5 z"
           inkscape:connector-curvature="0" />
        <path
           id="path1477"
           d="m 488.8,450.7 c 3.6,1 6.5,3.3 9.6,5.4 -0.5,0.4 -0.9,0.9 -1.4,1.3 -3,-2 -6.5,-3.2 -8.2,-6.7 z"
           inkscape:connector-curvature="0" />
        <path
           id="path1479"
           d="m 506.5,570.2 c 0.4,0 0.8,0 1.2,-0.1 1.8,2.3 3.7,4.6 5.7,7.1 -3.5,-1 -6,-3 -6.9,-7 z"
           inkscape:connector-curvature="0" />
        <path
           id="path1481"
           d="m 505,472.9 1.3,-1.3 c 2.5,0.9 5,1.7 9.1,3.2 -5,0.9 -7.8,-0.3 -10.4,-1.9 z"
           inkscape:connector-curvature="0" />
        <path
           id="path1483"
           d="m 528.7,560.7 c 0.5,1.3 1.6,1.1 2.6,1.3 -2.8,2.2 -6.5,1.2 -10.8,3.6 2.8,-4 5.9,-3.7 8.2,-4.9 z"
           inkscape:connector-curvature="0" />
        <path
           id="path1485"
           d="m 485.7,412.8 c 1.8,1.5 3.7,3.1 5.5,4.6 0,0.6 0.1,1.1 0.1,1.7 -2.4,-1.7 -5.1,-3 -7,-5.1 -1.6,-1.7 0.5,-1.2 1.4,-1.2 z"
           inkscape:connector-curvature="0" />
        <path
           id="path1487"
           d="m 581.5,273.2 c 0,0 -6.7,28.9 -13.1,43.6 -6.5,14.7 -14.9,31.9 -14.9,31.9 0,0 9.4,-8.4 18.3,-30.8 8.8,-22.5 9.7,-44.7 9.7,-44.7 z"
           inkscape:connector-curvature="0" />
      </g>
      <path
         id="path1491"
         d="m 262.7,616.1 c -1.7,7.4 4.6,2.4 4.6,2.4 L 254,802.9 c 0,0 -64.7,-9.3 -72,-72.7 18,-87.4 28.3,-199.2 28.3,-199.2 0,0 32.9,-6.4 52.4,85.1 z"
         inkscape:connector-curvature="0"
         style="fill:#f7f6f5" />
      <path
         id="path1493"
         d="m 255.8,834.7 c 0,0 53.1,-13.4 70.8,-3.6 17.7,9.8 47.6,25.7 48.1,42.5 0.5,16.8 -22.3,64.3 -46.5,62.5 -24.2,-1.8 -88.9,-47.9 -88.9,-47.9 z"
         inkscape:connector-curvature="0"
         style="fill:#f2b181" />
      <path
         id="path1495"
         d="m 295,873.4 c 10.3,-3.1 26.4,-30.9 21.5,-39.3 -24.5,3.9 -61.9,-107 -57.5,-100 4.7,7.4 -21.6,-48.5 -70,-23.2 -23.2,28 9.7,124.8 45.7,167.9 6.8,8.1 19.6,9.1 24.2,7.4 6.6,-2.5 25.6,-9.6 36.1,-12.8 z"
         inkscape:connector-curvature="0"
         style="fill:#f7f6f5" />
      <path
         id="path1497"
         d="m 226.2,875.5 c 0,0 14.7,-35.7 22.7,-45.7 8,-10 40.7,-30.6 40.7,-30.6 l 30.9,33.8 c 0,0 -18.6,41.6 -26.6,49.9 -8,8.3 -36.6,23.3 -36.6,23.3 z"
         inkscape:connector-curvature="0"
         style="fill:#ffffff" />
      <path
         id="path1499"
         d="m 576.7,826.7 c 0,0 -54.2,-14.1 -71.6,-3.8 -17.5,10.2 -47,26.7 -46.8,44.3 0.2,17.6 25.1,67.1 49.4,65.3 24.3,-1.8 87.8,-49.9 87.8,-49.9 z"
         inkscape:connector-curvature="0"
         style="fill:#f2b181" />
      <path
         id="path1501"
         d="m 536.9,857.7 c -8.4,-4.4 -12.2,-16.4 -6.5,-22.8 0.9,-0.8 73.9,-111.9 69,-106.6 -5.3,5.6 26.6,-24.2 64.5,5.4 15.5,27.8 -37.2,107.4 -75.5,138.4 -7.2,5.8 -18.5,4.6 -22.2,2.4 -5.4,-3.2 -20.7,-12.4 -29.3,-16.8 z"
         inkscape:connector-curvature="0"
         style="fill:#f7f6f5" />
      <path
         id="path1503"
         d="m 610.7,876.3 c 0,0 -11.8,-36.7 -19,-47.3 -7.2,-10.6 -38.1,-33.7 -38.1,-33.7 L 516,822.5 c 0,0 15.3,42.9 22.6,51.8 7.3,8.9 34.7,26.1 34.7,26.1 z"
         inkscape:connector-curvature="0"
         style="fill:#ffffff" />
    </g>
    <rect
       style="opacity:0.63200001;fill:#ffffff;fill-opacity:1;stroke:#f7f6f5;stroke-width:4;stroke-miterlimit:4;stroke-dasharray:none;stroke-opacity:1"
       id="rect1031"
       width="763.22119"
       height="345.99356"
       x="48.896519"
       y="-254.85956" />
    <g
       aria-label="E"
       style="font-style:normal;font-weight:normal;font-size:10.58329964px;line-height:1.25;font-family:sans-serif;letter-spacing:0px;word-spacing:0px;fill:#000000;fill-opacity:1;stroke:none;stroke-width:0.26458299"
       id="text192"
       transform="translate(2.4615931,-16.11789)" />
    <text
       xml:space="preserve"
       style="font-style:normal;font-variant:normal;font-weight:bold;font-stretch:normal;font-size:144.54829407px;line-height:1.25;font-family:'DejaVu Sans';-inkscape-font-specification:'DejaVu Sans, Bold';font-variant-ligatures:normal;font-variant-caps:normal;font-variant-numeric:normal;font-feature-settings:normal;text-align:start;letter-spacing:0px;word-spacing:0px;writing-mode:lr-tb;text-anchor:start;fill:#4d4d9f;fill-opacity:1;stroke:none;stroke-width:5.50039101"
       x="90.1502"
       y="33.16378"
       id="text3717-3"
       transform="scale(0.83313761,1.2002819)"><tspan
         sodipodi:role="line"
         id="tspan3715-6"
         x="90.1502"
         y="33.16378"
         style="font-style:normal;font-variant:normal;font-weight:bold;font-stretch:normal;font-size:144.54829407px;font-family:'DejaVu Sans';-inkscape-font-specification:'DejaVu Sans, Bold';font-variant-ligatures:normal;font-variant-caps:normal;font-variant-numeric:normal;font-feature-settings:normal;text-align:start;writing-mode:lr-tb;text-anchor:start;fill:#4d4d9f;fill-opacity:1;stroke-width:5.50039101">Design</tspan></text>
    <text
       xml:space="preserve"
       style="font-style:normal;font-weight:normal;font-size:217.13171387px;line-height:1.25;font-family:sans-serif;letter-spacing:0px;word-spacing:0px;fill:#666666;fill-opacity:1;stroke:none;stroke-width:5.42831421"
       x="588.70325"
       y="37.196098"
       id="text3717-5"
       transform="scale(0.94997002,1.0526648)"><tspan
         sodipodi:role="line"
         id="tspan3715-3"
         x="588.70325"
         y="37.196098"
         style="font-weight:bold;fill:#666666;stroke-width:5.42831421">IT</tspan></text>
    <text
       xml:space="preserve"
       style="font-style:normal;font-variant:normal;font-weight:bold;font-stretch:normal;font-size:192.5519104px;line-height:1.25;font-family:'DejaVu Sans';-inkscape-font-specification:'DejaVu Sans, Bold';font-variant-ligatures:normal;font-variant-caps:normal;font-variant-numeric:normal;font-feature-settings:normal;text-align:start;letter-spacing:0px;word-spacing:0px;writing-mode:lr-tb;text-anchor:start;fill:#666666;fill-opacity:1;stroke:none;stroke-width:4.81376696;"
       x="61.128998"
       y="-124.69269"
       id="text3717-5-5"
       transform="scale(1.1468776,0.87193263)"><tspan
         sodipodi:role="line"
         id="tspan3715-3-3"
         x="61.128998"
         y="-124.69269"
         style="font-style:normal;font-variant:normal;font-weight:bold;font-stretch:normal;font-size:192.5519104px;font-family:'DejaVu Sans';-inkscape-font-specification:'DejaVu Sans, Bold';font-variant-ligatures:normal;font-variant-caps:normal;font-variant-numeric:normal;font-feature-settings:normal;text-align:start;writing-mode:lr-tb;text-anchor:start;fill:#666666;stroke-width:4.81376696;">EA</tspan></text>
    <g
       id="g1304"
       transform="translate(-258.12855,239.7492)">
      <g
         inkscape:corner7="0.1423826 : -0.035755993 : 0.25 : 1"
         inkscape:corner0="0.42101251 : -0.021542283 : 0 : 1"
         inkscape:perspectiveID="#perspective3870-5"
         style="fill:#333333"
         id="g3872"
         sodipodi:type="inkscape:box3d">
        <path
           points="1290.9657,-617.46216 1518.7548,-702.4245 1518.7548,-880.0571 1290.9657,-826.34582 "
           d="m 1290.9657,-826.34582 v 208.88366 l 227.7891,-84.96234 v -177.6326 z"
           inkscape:box3dsidetype="6"
           style="fill:#353564;fill-rule:evenodd;stroke:none;stroke-width:83.96247101;stroke-linejoin:round"
           id="path3874"
           sodipodi:type="inkscape:box3dside" />
        <path
           points="1492.567,-478.95178 1729.7418,-605.78526 1518.7548,-702.4245 1290.9657,-617.46216 "
           d="m 1290.9657,-617.46216 201.6013,138.51038 237.1748,-126.83348 -210.987,-96.63924 z"
           inkscape:box3dsidetype="13"
           style="fill:#afafde;fill-rule:evenodd;stroke:none;stroke-width:83.96247101;stroke-linejoin:round"
           id="path3882"
           sodipodi:type="inkscape:box3dside" />
        <path
           points="1729.7418,-818.96395 1729.7418,-605.78526 1518.7548,-702.4245 1518.7548,-880.0571 "
           d="m 1518.7548,-880.0571 210.987,61.09315 v 213.17869 l -210.987,-96.63924 z"
           inkscape:box3dsidetype="11"
           style="fill:#e9e9ff;fill-rule:evenodd;stroke:none;stroke-width:83.96247101;stroke-linejoin:round"
           id="path3884"
           sodipodi:type="inkscape:box3dside" />
        <path
           points="1492.567,-738.78268 1729.7418,-818.96395 1518.7548,-880.0571 1290.9657,-826.34582 "
           d="m 1290.9657,-826.34582 201.6013,87.56314 237.1748,-80.18127 -210.987,-61.09315 z"
           inkscape:box3dsidetype="5"
           style="fill:#4d4d9f;fill-rule:evenodd;stroke:none;stroke-width:83.96247101;stroke-linejoin:round"
           id="path3876"
           sodipodi:type="inkscape:box3dside" />
        <path
           points="1492.567,-478.95178 1729.7418,-605.78526 1729.7418,-818.96395 1492.567,-738.78268 "
           d="m 1492.567,-738.78268 v 259.8309 l 237.1748,-126.83348 v -213.17869 z"
           inkscape:box3dsidetype="14"
           style="fill:#e9c6af;fill-rule:evenodd;stroke:none;stroke-width:83.96247101;stroke-linejoin:round"
           id="path3880"
           sodipodi:type="inkscape:box3dside" />
        <path
           points="1492.567,-738.78268 1492.567,-478.95178 1290.9657,-617.46216 1290.9657,-826.34582 "
           d="m 1290.9657,-826.34582 201.6013,87.56314 v 259.8309 l -201.6013,-138.51038 z"
           inkscape:box3dsidetype="3"
           style="fill:#8686bf;fill-rule:evenodd;stroke:none;stroke-width:83.96247101;stroke-linejoin:round"
           id="path3878"
           sodipodi:type="inkscape:box3dside" />
      </g>
      <g
         transform="matrix(4.7023096,0,0,4.7023096,1207.0943,-1417.7681)"
         id="text3717"
         style="font-style:normal;font-weight:normal;font-size:15.41134357px;line-height:1.25;font-family:sans-serif;letter-spacing:0px;word-spacing:0px;fill:#ffffff;fill-opacity:1;stroke:none;stroke-width:0.38528359"
         aria-label="EA">
        <path
           transform="matrix(1.0662054,0.04009745,-0.0387015,1.1046629,3.8677878,-14.852277)"
           inkscape:original-d="m 48.555186,122.82201 v 11.23498 h 7.984008 v -2.19005 h -5.086511 v -2.57349 h 4.627625 v -2.18953 h -4.627625 v -2.09186 h 4.921147 v -2.19005 z m 13.349572,0 -4.161503,11.23498 h 2.912484 l 0.714685,-2.04691 h 4.529956 l 0.70745,2.04691 h 2.912483 l -4.161502,-11.23498 z m 1.730644,2.63395 1.535307,4.4695 H 62.09286 Z"
           inkscape:path-effect="#path-effect3911-8"
           inkscape:connector-curvature="0"
           id="path3905"
           d="m 36.955109,126.94656 c 0,0 19.966885,7.62603 19.966885,7.62603 0,0 10.369618,-3.63865 10.369618,-3.63865 0,0 -4.330722,-1.48624 -4.330722,-1.48624 0,0 -6.470747,2.19727 -6.470747,2.19727 0,0 -4.798366,-1.76113 -4.798366,-1.76113 0,0 5.851604,-1.91532 5.851604,-1.91532 0,0 -3.933994,-1.35811 -3.933994,-1.35811 0,0 -5.808642,1.84532 -5.808642,1.84532 0,0 -3.563938,-1.30805 -3.563938,-1.30805 0,0 6.123995,-1.89291 6.123995,-1.89291 0,0 -3.628715,-1.24798 -3.628715,-1.24798 0,0 -9.776978,2.93977 -9.776978,2.93977 z m 16.306226,-4.90301 c 0,0 15.525753,8.36563 15.525753,8.36563 0,0 3.547507,-1.2448 3.547507,-1.2448 0,0 -3.227262,-1.61876 -3.227262,-1.61876 0,0 5.271978,-1.79396 5.271978,-1.79396 0,0 4.911768,0.97172 4.911768,0.97172 0,0 3.268017,-1.14673 3.268017,-1.14673 0,0 -25.371633,-4.71362 -25.371633,-4.71362 0,0 -3.926128,1.18052 -3.926128,1.18052 z m 6.434105,0.80296 c 0,0 9.836176,1.95164 9.836176,1.95164 0,0 -3.565192,1.17732 -3.565192,1.17732 0,0 -6.270984,-3.12896 -6.270984,-3.12896 z"
           style="font-weight:bold;fill:#ffffff;stroke-width:0.38528359" />
      </g>
      <path
         transform="matrix(4.2918132,0,0,5.4814781,1199.2501,-1541.1359)"
         inkscape:original-d="m 56.004575,141.90248 v 2.1978 h 2.693892 v -2.1978 z m -32.297771,0.47439 v 11.23498 h 3.055112 c 1.685614,0 2.950242,-0.12042 3.79305,-0.36122 0.842807,-0.24582 1.564787,-0.65984 2.166792,-1.24178 0.526756,-0.50669 0.918237,-1.09118 1.174089,-1.75339 0.255852,-0.66722 0.383956,-1.42439 0.383956,-2.27221 0,-0.83779 -0.128104,-1.58778 -0.383956,-2.24999 -0.255852,-0.66221 -0.647333,-1.2467 -1.174089,-1.75338 -0.596988,-0.58194 -1.314015,-0.99375 -2.151806,-1.23455 -0.832774,-0.24582 -2.102355,-0.36846 -3.808036,-0.36846 z m 2.897497,2.18953 h 1.03818 c 1.188963,0 2.094559,0.29141 2.716631,0.87334 0.622072,0.58194 0.933276,1.4298 0.933276,2.54351 0,1.11873 -0.313938,1.97155 -0.941028,2.5585 -0.622072,0.58696 -1.524934,0.88005 -2.708879,0.88005 h -1.03818 z m 13.815695,0.41393 c -1.454847,0 -2.598541,0.39422 -3.431315,1.18184 -0.827758,0.78763 -1.241784,1.86864 -1.241784,3.24322 0,1.39966 0.421714,2.48835 1.264522,3.26595 0.847824,0.77257 2.034392,1.15858 3.559473,1.15858 0.637122,0 1.273871,-0.0627 1.910994,-0.1881 0.637123,-0.1204 1.274389,-0.30077 1.911511,-0.54157 v -2.07687 c -0.627089,0.34113 -1.239074,0.59682 -1.836064,0.76739 -0.591971,0.16555 -1.171506,0.24805 -1.738395,0.24805 -0.70234,0 -1.248906,-0.15782 -1.64021,-0.47387 -0.3913,-0.31606 -0.620009,-0.79003 -0.685229,-1.42214 h 6.29884 v -0.76791 c 0,-1.33445 -0.399169,-2.40008 -1.196826,-3.19774 -0.792641,-0.79765 -1.851105,-1.19683 -3.175517,-1.19683 z m 9.647473,0 c -1.264212,0 -2.202776,0.21608 -2.814815,0.64751 -0.612039,0.43144 -0.917773,1.09347 -0.917773,1.98644 0,0.82776 0.240832,1.4447 0.722436,1.85105 0.481605,0.40635 1.321783,0.68511 2.520776,0.83561 l 0.473873,0.0599 c 0.546822,0.0652 0.910805,0.15814 1.091407,0.27854 0.185618,0.11538 0.278536,0.29353 0.278535,0.53433 10e-7,0.28596 -0.133056,0.50151 -0.398941,0.64699 -0.265886,0.14549 -0.662321,0.21808 -1.189075,0.21808 -0.581939,0 -1.156004,-0.0649 -1.722892,-0.19534 -0.561872,-0.13043 -1.11169,-0.32617 -1.648479,-0.58704 v 2.0469 c 0.62709,0.17559 1.236857,0.3059 1.828829,0.39119 0.59699,0.0903 1.173789,0.13539 1.730644,0.13539 1.314379,0 2.302988,-0.22545 2.965194,-0.67696 0.662206,-0.4515 0.993221,-1.12669 0.993221,-2.02468 0,-0.85786 -0.238615,-1.48743 -0.715202,-1.88878 -0.476588,-0.40133 -1.404213,-0.68947 -2.783809,-0.86506 l -0.47439,-0.0677 c -0.486621,-0.0552 -0.825323,-0.14041 -1.015959,-0.25579 -0.185618,-0.11538 -0.278536,-0.28141 -0.278536,-0.49713 0,-0.26589 0.123151,-0.46111 0.36897,-0.58653 0.250835,-0.13043 0.631895,-0.19585 1.143599,-0.19585 0.476588,0 0.983532,0.0605 1.520321,0.18087 0.536788,0.1204 1.093777,0.30077 1.670699,0.54157 v -2.04691 c -0.642139,-0.16053 -1.237049,-0.27821 -1.78387,-0.35347 -0.546822,-0.0752 -1.068108,-0.11317 -1.564763,-0.11317 z m 27.752311,0 c -0.551839,0 -1.056048,0.11821 -1.512569,0.35399 -0.456521,0.23077 -0.888141,0.59202 -1.294495,1.08365 v -1.23455 h -2.693892 v 8.42843 h 2.693892 v -4.14652 c 0,-0.76756 0.160555,-1.3669 0.481625,-1.79834 0.321069,-0.43646 0.762595,-0.65474 1.324467,-0.65474 0.230768,0 0.436414,0.05 0.617016,0.15038 0.180602,0.0953 0.323564,0.23111 0.428915,0.40669 0.08027,0.13044 0.135781,0.33335 0.165881,0.60927 0.03511,0.27592 0.05271,0.77739 0.05271,1.50482 v 3.09283 0.83561 h 2.708879 v -5.13199 c 0,-1.13879 -0.253473,-2.00699 -0.760161,-2.60397 -0.501671,-0.59699 -1.239026,-0.89556 -2.212268,-0.89556 z m -13.575398,0.015 c -1.028426,0 -1.87851,0.40412 -2.550749,1.21181 -0.67224,0.80267 -1.008724,1.83364 -1.008724,3.09284 0,1.25417 0.336484,2.28736 1.008724,3.10007 0.672239,0.80769 1.522323,1.21181 2.550749,1.21181 0.586956,0 1.103805,-0.11547 1.550293,-0.34623 0.446487,-0.23078 0.855561,-0.59203 1.226798,-1.08366 v 0.57929 c 0,0.82274 -0.206163,1.42756 -0.617533,1.81385 -0.41137,0.38628 -1.058025,0.57929 -1.940967,0.57929 -0.456521,0 -0.910687,-0.0676 -1.362191,-0.20309 -0.451505,-0.13043 -0.913358,-0.33113 -1.384928,-0.60203 v 2.09961 c 0.496655,0.16556 0.990959,0.28819 1.482597,0.36846 0.491637,0.0803 1.0008,0.1204 1.527555,0.1204 1.625415,0 2.864762,-0.35851 3.717602,-1.0759 0.857858,-0.71237 1.286744,-1.74607 1.286744,-3.10059 v -7.57783 h -2.708879 v 1.24954 c -0.371237,-0.49665 -0.780311,-0.86064 -1.226798,-1.09141 -0.446488,-0.23077 -0.963337,-0.34623 -1.550293,-0.34623 z m -8.239807,0.1881 v 8.42843 h 2.693892 v -8.42843 z m -15.599565,1.58802 c 0.481605,0 0.870351,0.15782 1.166337,0.47387 0.301003,0.31104 0.451652,0.72285 0.451652,1.23455 h -3.499011 c 0.08027,-0.55184 0.283178,-0.97355 0.609265,-1.26452 0.326086,-0.29599 0.750019,-0.4439 1.271757,-0.4439 z m 24.840344,0.16536 c 0.561872,0 0.998445,0.20565 1.309481,0.61702 0.311036,0.41137 0.466638,0.99363 0.466638,1.74615 0,0.74748 -0.155602,1.32702 -0.466638,1.73839 -0.311036,0.41137 -0.747609,0.61702 -1.309481,0.61702 -0.576922,0 -1.015712,-0.19848 -1.316715,-0.5948 -0.301003,-0.40133 -0.451653,-0.98804 -0.451653,-1.76061 0,-0.75252 0.155602,-1.33478 0.466639,-1.74615 0.311036,-0.41137 0.744874,-0.61702 1.301729,-0.61702 z"
         inkscape:path-effect="#path-effect3949-8"
         inkscape:connector-curvature="0"
         id="path3926"
         d="m 44.917922,150.32208 c 0,0 0.05763,2.55283 0.05763,2.55283 0,0 1.878384,0.80985 1.878384,0.80985 0,0 -0.06382,-2.58338 -0.06382,-2.58338 0,0 -1.872191,-0.7793 -1.872191,-0.7793 z m -19.633648,-7.69101 c 0,0 0,11.56452 0,11.56452 0,0 1.68404,0.83612 1.68404,0.83612 0.945418,0.46939 1.661992,0.69677 2.142427,0.67746 0.483148,-0.0248 0.898038,-0.26518 1.243897,-0.7215 0.303519,-0.39773 0.528186,-0.9183 0.67321,-1.56106 0.145029,-0.64833 0.214546,-1.42837 0.208317,-2.33939 -0.0061,-0.89838 -0.08642,-1.73444 -0.240212,-2.50746 -0.153253,-0.77029 -0.38391,-1.4895 -0.690981,-2.15688 -0.346152,-0.76033 -0.757763,-1.36681 -1.234333,-1.81972 -0.47057,-0.4539 -1.181146,-0.8793 -2.124865,-1.27515 0,0 -1.6615,-0.69694 -1.6615,-0.69694 z m 1.578999,2.91545 c 0,0 0.573872,0.24924 0.573872,0.24924 0.662577,0.28777 1.172292,0.81336 1.526305,1.57734 0.35614,0.76859 0.537969,1.74328 0.543696,2.92284 0.0058,1.18811 -0.169742,2.01123 -0.525233,2.46606 -0.3515,0.45476 -0.861602,0.52005 -1.526936,0.19981 0,0 -0.578675,-0.27852 -0.578675,-0.27852 0,0 -0.01303,-7.13677 -0.01303,-7.13677 z m 8.01477,3.93076 c -0.883569,-0.38624 -1.567393,-0.26054 -2.057334,0.37088 -0.484846,0.63004 -0.720774,1.68553 -0.709137,3.17259 0.01189,1.51941 0.272385,2.82664 0.784277,3.92427 0.519182,1.1028 1.245401,1.88896 2.183461,2.35612 0.395173,0.1968 0.791222,0.32399 1.188525,0.38126 0.399225,0.0632 0.799499,0.0588 1.200547,-0.0141 0,0 -0.03256,-2.34924 -0.03256,-2.34924 -0.392051,0.19389 -0.774269,0.29556 -1.146718,0.30589 -0.367824,0.006 -0.727478,-0.0767 -1.078817,-0.24726 -0.433157,-0.21033 -0.770452,-0.5481 -1.013265,-1.01342 -0.241889,-0.46358 -0.385949,-1.05201 -0.43225,-1.7655 0,0 3.910695,1.84775 3.910695,1.84775 0,0 -0.01224,-0.86494 -0.01224,-0.86494 -0.02121,-1.49902 -0.290527,-2.80617 -0.804407,-3.91915 -0.506553,-1.10248 -1.167834,-1.82978 -1.980778,-2.18514 z m 6.117432,2.67411 c -0.82818,-0.36202 -1.433705,-0.38483 -1.821134,-0.0726 -0.385999,0.31112 -0.570622,0.96812 -0.555268,1.97382 0.01427,0.93432 0.179904,1.70407 0.498016,2.31016 0.31966,0.60905 0.872797,1.18591 1.664257,1.73171 0,0 0.314993,0.2177 0.314993,0.2177 0.364947,0.24775 0.609865,0.4707 0.733301,0.66777 0.126907,0.1932 0.193187,0.42999 0.19852,0.71005 0.0063,0.33281 -0.07825,0.54066 -0.253371,0.62375 -0.174819,0.0829 -0.437961,0.0388 -0.788385,-0.13137 -0.385422,-0.18715 -0.765148,-0.44569 -1.139626,-0.77602 -0.369398,-0.32715 -0.730386,-0.72356 -1.082353,-1.18819 0,0 0.0359,2.3373 0.0359,2.3373 0.410201,0.40283 0.810456,0.75006 1.200227,1.04128 0.395118,0.3001 0.777896,0.54253 1.148252,0.72697 0.880779,0.43863 1.544208,0.50651 1.984188,0.19824 0.44182,-0.30954 0.652225,-0.99517 0.630011,-2.05289 -0.02117,-1.00808 -0.199737,-1.82291 -0.534054,-2.44379 -0.332675,-0.6178 -0.964477,-1.24132 -1.88924,-1.86841 0,0 -0.315693,-0.22238 -0.315693,-0.22238 -0.322249,-0.21088 -0.546709,-0.41065 -0.674084,-0.59981 -0.123859,-0.18732 -0.187878,-0.40436 -0.19206,-0.65011 -0.0052,-0.30272 0.07156,-0.4885 0.230003,-0.55871 0.161889,-0.0746 0.411026,-0.0366 0.748525,0.11507 0.315576,0.14181 0.653886,0.36275 1.014921,0.66258 0.362707,0.30126 0.742135,0.67956 1.138423,1.1361 0,0 -0.0488,-2.37252 -0.0488,-2.37252 -0.437133,-0.37584 -0.839244,-0.68651 -1.206331,-0.93297 -0.365414,-0.24527 -0.711509,-0.4396 -1.039144,-0.58282 0,0 10e-7,5e-5 10e-7,5e-5 z m 20.53404,8.97604 c -0.457738,-0.20009 -0.867898,-0.23009 -1.231234,-0.0919 -0.36237,0.13132 -0.696716,0.43824 -1.003166,0.9203 0,0 -0.06086,-1.57719 -0.06086,-1.57719 0,0 -2.160063,-0.94722 -2.160063,-0.94722 0,0 0.388523,10.74053 0.388523,10.74053 0,0 2.19145,1.08804 2.19145,1.08804 0,0 -0.207873,-5.38672 -0.207873,-5.38672 -0.0382,-0.98999 0.06304,-1.70141 0.303907,-2.13687 0.240995,-0.44262 0.592582,-0.5601 1.056126,-0.35104 0.191056,0.0862 0.364279,0.22791 0.519681,0.42591 0.155428,0.19177 0.281899,0.42235 0.379285,0.69082 0.07412,0.20046 0.131495,0.4862 0.171589,0.85779 0.04434,0.37392 0.08625,1.03659 0.125721,1.98971 0,0 0.168757,4.07542 0.168757,4.07542 0,0 0.04586,1.10751 0.04586,1.10751 0,0 2.320968,1.15235 2.320968,1.15235 0,0 -0.301121,-6.85085 -0.301121,-6.85085 -0.06619,-1.50597 -0.33331,-2.74766 -0.799035,-3.72329 -0.458541,-0.96761 -1.095716,-1.62802 -1.908513,-1.98331 z M 50.886511,156.493 c -0.757013,-0.33099 -1.364399,-0.11664 -1.826244,0.63818 -0.460441,0.74623 -0.670442,1.87464 -0.63055,3.39122 0.03987,1.51572 0.317114,2.88618 0.834162,4.11503 0.520977,1.23242 1.164064,2.04183 1.931517,2.42286 0.441031,0.21897 0.826874,0.26865 1.156468,0.14807 0.330642,-0.12099 0.628638,-0.41978 0.893238,-0.89677 0,0 0.02292,0.72613 0.02292,0.72613 0.03262,1.03333 -0.101599,1.7153 -0.401457,2.04308 -0.299125,0.32697 -0.783521,0.32002 -1.450691,-0.0184 -0.342988,-0.17398 -0.685292,-0.43037 -1.02661,-0.76886 -0.33971,-0.33082 -0.68802,-0.75074 -1.04426,-1.25867 0,0 0.07026,2.58837 0.07026,2.58837 0.372421,0.39457 0.743345,0.73671 1.11247,1.02658 0.370758,0.29119 0.754889,0.54017 1.152559,0.74684 1.238495,0.64364 2.179942,0.68438 2.813447,0.11248 0.641066,-0.56656 0.933546,-1.71618 0.875081,-3.44081 0,0 -0.322941,-9.52634 -0.322941,-9.52634 0,0 -2.074782,-0.90982 -2.074782,-0.90982 0,0 0.04853,1.53715 0.04853,1.53715 -0.300264,-0.73626 -0.622617,-1.31924 -0.966594,-1.74919 -0.34246,-0.42806 -0.731526,-0.73696 -1.166521,-0.92715 z m -5.882432,-2.35445 c 0,0 0.224834,9.95943 0.224834,9.95943 0,0 1.905662,0.94614 1.905662,0.94614 0,0 -0.249045,-10.08053 -0.249045,-10.08053 0,0 -1.881451,-0.82504 -1.881451,-0.82504 z m -10.113553,-2.70409 c 0.295334,0.1327 0.536546,0.41404 0.723313,0.84511 0.190386,0.42826 0.289347,0.92687 0.296252,1.4943 0,0 -2.144565,-0.98876 -2.144565,-0.98876 0.04266,-0.58088 0.16087,-0.98557 0.355255,-1.21389 0.194669,-0.23421 0.451028,-0.27998 0.769745,-0.13676 z m 16.810362,7.75331 c 0.421203,0.18975 0.757685,0.59075 1.008473,1.20408 0.251745,0.61566 0.392772,1.39099 0.422253,2.32485 0.02935,0.92958 -0.06663,1.59513 -0.287606,1.99453 -0.220643,0.39879 -0.543905,0.49502 -0.968321,0.29006 -0.433674,-0.20944 -0.769247,-0.61296 -1.007893,-1.20905 -0.237952,-0.60006 -0.370237,-1.37233 -0.39726,-2.31742 -0.02627,-0.91863 0.06835,-1.57552 0.283958,-1.97186 0.215923,-0.39692 0.530928,-0.50235 0.946396,-0.31519 z"
         style="font-style:normal;font-weight:bold;font-size:15.41134357px;line-height:1.25;font-family:sans-serif;letter-spacing:0px;word-spacing:0px;fill:#ffffff;fill-opacity:1;stroke:none;stroke-width:0.38528359" />
      <path
         inkscape:connector-curvature="0"
         inkscape:original-d="m 172.89844,116.9043 v 29.16015 h 7.51953 V 116.9043 Z m 15.21484,1.07422 v 6.21093 h -3.47656 v 5 h 3.47656 v 9.27735 c 0,2.76041 0.57292,4.72005 1.71875,5.8789 1.15885,1.14583 3.11849,1.71875 5.87891,1.71875 h 5.99609 v -5 h -3.59375 c -1.19791,0 -1.9987,-0.17579 -2.40234,-0.52734 -0.40365,-0.3646 -0.60547,-1.0547 -0.60547,-2.07031 v -9.27735 h 7.20703 v -5 h -7.20703 v -6.21093 z"
         inkscape:path-effect="#path-effect3975-0"
         id="path3967"
         d="m 172.89844,116.9043 c 0,0 -0.49859,105.44457 -0.49859,105.44457 0,0 26.43438,-13.92821 26.43438,-13.92821 0,0 0.18425,-101.16971 0.18425,-101.16971 0,0 -26.12004,9.65335 -26.12004,9.65335 z m 50.82217,-15.23997 c 0,0 0.0192,20.53123 0.0192,20.53123 0,0 -10.94848,4.4731 -10.94848,4.4731 0,0 -0.005,16.89989 -0.005,16.89989 0,0 10.96879,-4.77621 10.96879,-4.77621 0,0 0.0289,30.95783 0.0289,30.95783 0.009,9.25243 1.79481,14.92235 5.3301,16.97897 3.53735,1.97107 9.42229,0.77244 17.51673,-3.4925 0,0 16.85492,-8.88082 16.85492,-8.88082 0,0 -0.0836,-15.69152 -0.0836,-15.69152 0,0 -9.96912,4.98134 -9.96912,4.98134 -3.39987,1.69884 -5.69669,2.27939 -6.864,1.72541 -1.17176,-0.59817 -1.7646,-2.54021 -1.77532,-5.8227 0,0 -0.0975,-29.87455 -0.0975,-29.87455 0,0 20.14879,-8.77353 20.14879,-8.77353 0,0 -0.0852,-15.46389 -0.0852,-15.46389 0,0 -20.11587,8.21852 -20.11587,8.21852 0,0 -0.0647,-19.819125 -0.0647,-19.819125 0,0 -20.85883,7.828555 -20.85883,7.828555 z"
         style="font-style:normal;font-weight:bold;font-size:10.58333302px;line-height:1.25;font-family:sans-serif;letter-spacing:0px;word-spacing:0px;fill:#ffffff;fill-opacity:1;stroke:none;stroke-width:0.99999994"
         transform="matrix(1.2441527,0,0,1.2441527,1327.4384,-860.99746)" />
    </g>
  </g>
</svg>
